<?xml version="1.0" standalone="no"?>
<!DOCTYPE svg PUBLIC "-//W3C//DTD SVG 20010904//EN"
 "http://www.w3.org/TR/2001/REC-SVG-20010904/DTD/svg10.dtd">
<svg version="1.0" xmlns="http://www.w3.org/2000/svg"
 width="512.000000pt" height="512.000000pt" viewBox="0 0 512.000000 512.000000"
 preserveAspectRatio="xMidYMid meet">
<metadata>
Created by potrace 1.14, written by Peter Selinger 2001-2017
</metadata>
<g transform="translate(0.000000,512.000000) scale(0.100000,-0.100000)"
fill="#000000" stroke="none">
<path d="M112 4852 c-7 -5 -28 -7 -48 -6 -23 2 -37 -2 -41 -11 -3 -8 -9 -12
-14 -9 -5 3 -9 -500 -9 -1216 l0 -1221 22 -8 c13 -5 29 -6 37 -3 8 3 12 1 8
-5 -4 -6 3 -11 18 -10 14 0 22 4 19 9 -4 6 2 6 13 -1 14 -7 24 -7 33 2 10 9
11 9 6 0 -4 -7 -3 -13 3 -13 5 0 12 6 14 13 4 9 6 9 6 0 1 -7 6 -13 12 -13 5
0 7 6 3 13 -6 10 -4 10 7 0 16 -16 33 -17 23 -2 -5 8 -1 8 13 0 14 -7 24 -7
33 2 10 9 11 9 6 0 -4 -7 -3 -13 3 -13 5 0 12 6 14 13 4 9 6 9 6 0 1 -7 6 -13
12 -13 5 0 7 5 3 12 -5 7 -3 8 7 2 19 -12 42 -11 51 1 5 6 8 5 8 -2 0 -7 5
-13 11 -13 5 0 7 5 3 12 -4 6 -3 8 3 5 15 -9 74 3 67 14 -3 5 0 9 6 9 21 0 39
28 42 64 1 20 7 36 13 36 5 0 5 4 -2 8 -14 9 -14 51 1 71 8 11 8 13 -1 7 -7
-4 -13 -3 -13 3 0 5 5 13 10 16 6 4 7 12 3 18 -12 20 -12 37 0 37 7 0 6 4 -2
9 -13 8 -13 12 0 27 9 11 9 15 2 10 -8 -4 -13 -1 -13 9 0 10 5 13 13 9 9 -6 9
-5 0 7 -10 12 -10 18 0 29 9 10 9 11 -1 6 -15 -9 -17 20 -2 29 8 5 8 11 1 19
-7 9 -7 17 2 26 9 10 9 11 0 6 -9 -5 -12 2 -10 24 1 16 7 30 12 30 6 0 4 4 -4
9 -13 8 -13 12 0 27 10 13 10 16 1 10 -16 -10 -13 25 3 36 6 5 5 8 -2 8 -15 0
-14 49 1 69 8 11 8 13 -2 7 -6 -4 -12 -3 -12 3 0 5 5 13 10 16 6 4 7 12 3 18
-12 20 -12 37 0 37 7 0 6 4 -2 9 -13 8 -13 12 0 27 10 13 10 16 1 10 -16 -10
-13 25 3 36 6 5 6 8 -2 8 -6 0 -11 13 -11 30 1 26 5 30 32 31 28 1 40 1 71 -4
16 -3 45 -39 39 -48 -3 -5 0 -9 5 -9 6 0 11 -22 11 -51 0 -27 4 -48 8 -45 5 3
9 -1 9 -9 0 -8 -4 -15 -9 -15 -4 0 -8 -5 -8 -11 0 -5 6 -7 13 -3 8 5 8 2 -2
-9 -11 -14 -11 -17 0 -17 11 0 11 -2 -1 -10 -11 -7 -11 -10 -2 -10 8 0 10 -5
5 -12 -12 -20 -14 -46 -3 -53 7 -4 6 -13 0 -26 -8 -14 -7 -19 2 -19 10 0 10
-2 -1 -9 -11 -7 -11 -9 0 -14 12 -5 12 -6 0 -6 -11 -1 -11 -4 0 -18 10 -11 10
-14 2 -9 -7 4 -13 2 -13 -3 0 -6 6 -11 13 -11 8 0 7 -4 -3 -10 -12 -8 -12 -10
-1 -10 10 0 11 -3 2 -14 -9 -11 -9 -15 1 -19 11 -4 10 -6 0 -6 -8 -1 -10 -6
-5 -13 4 -7 9 -22 10 -33 3 -16 1 -17 -7 -5 -6 9 -10 10 -10 3 0 -6 5 -15 10
-18 7 -4 7 -13 0 -26 -8 -14 -7 -19 2 -19 10 0 10 -2 -1 -9 -11 -7 -11 -9 0
-14 12 -5 12 -6 0 -6 -11 -1 -11 -4 0 -18 10 -11 10 -14 2 -9 -7 4 -13 2 -13
-3 0 -6 5 -11 12 -11 9 0 9 -3 0 -12 -7 -7 -12 -17 -12 -22 0 -6 4 -5 9 3 6
10 9 -1 9 -33 0 -26 6 -54 14 -63 11 -14 11 -16 -2 -8 -12 6 -13 5 -2 -6 6 -7
12 -23 12 -34 0 -28 40 -65 88 -82 44 -15 63 -17 42 -3 -8 5 -10 10 -5 10 6 0
17 -4 24 -9 9 -6 22 -6 32 0 12 6 20 5 25 -2 4 -8 9 -7 15 2 6 10 9 11 9 2 0
-7 5 -13 11 -13 5 0 7 5 3 12 -5 7 -3 8 7 2 19 -12 42 -11 51 1 5 6 8 5 8 -2
0 -7 5 -13 11 -13 5 0 7 6 3 13 -6 10 -4 10 7 0 16 -16 33 -17 23 -2 -5 8 -1
8 13 0 14 -7 24 -7 33 2 10 9 11 9 6 0 -4 -7 -2 -13 3 -13 6 0 11 6 11 13 0 8
3 8 9 -2 5 -8 16 -11 25 -8 9 4 18 5 20 4 1 -1 10 4 19 12 10 7 17 10 17 6 0
-5 9 2 20 15 11 13 20 34 20 47 0 14 4 21 10 18 6 -3 10 -1 10 4 0 6 -4 11 -8
11 -8 0 -15 45 -14 89 0 18 -2 20 -9 10 -6 -9 -9 13 -10 61 -3 168 -4 186 -13
199 -6 10 -6 12 3 7 8 -5 10 16 8 84 -2 50 0 93 5 96 5 3 4 12 -3 20 -6 8 -8
14 -4 14 4 0 2 7 -5 16 -11 12 -11 15 0 12 20 -4 20 43 1 65 -9 10 -11 18 -6
17 21 -4 27 0 17 13 -6 6 -11 15 -11 20 -1 4 -1 8 -2 10 0 1 -2 18 -5 37 -6
54 -12 82 -22 117 -6 17 -8 34 -4 37 3 3 0 6 -6 6 -7 0 -12 9 -12 20 0 11 -5
20 -10 20 -6 0 -9 3 -9 8 3 20 -2 32 -13 26 -6 -4 -8 -3 -4 4 3 5 -5 24 -19
40 -14 16 -25 35 -25 42 0 6 -4 9 -8 6 -5 -3 -9 1 -9 9 0 8 7 15 15 15 9 0 12
6 8 16 -3 8 -2 12 4 9 6 -3 10 1 10 10 0 9 5 13 10 10 6 -3 10 -1 10 5 0 7 10
26 22 43 12 17 16 27 9 23 -8 -6 -7 0 3 16 9 14 13 28 9 32 -5 4 -1 6 7 4 10
-2 14 3 12 16 -2 10 0 25 4 35 9 20 13 43 17 104 1 26 8 52 16 56 19 12 18 18
-4 36 -14 10 -15 13 -4 9 13 -4 16 1 14 24 -1 16 -5 34 -9 40 -3 6 -2 13 4 17
6 4 7 12 3 18 -11 17 -11 57 -1 63 4 3 5 11 1 17 -11 17 -11 57 -1 63 4 3 5
10 2 16 -4 7 -9 6 -14 -2 -4 -6 -7 8 -8 32 0 93 -2 119 -9 115 -5 -3 -9 14
-11 36 -1 23 -7 44 -12 45 -6 2 -10 14 -10 26 0 12 -8 31 -17 42 -10 11 -19
26 -21 33 -1 7 -14 24 -27 37 -14 14 -23 30 -19 35 3 5 0 8 -8 7 -7 -2 -12 3
-10 10 1 8 -2 11 -7 7 -12 -7 -52 30 -43 40 4 4 3 6 -3 5 -19 -4 -36 0 -31 8
2 4 -5 9 -17 9 -12 1 -23 7 -25 13 -2 5 -13 10 -23 10 -11 0 -18 4 -15 8 3 5
-10 8 -29 7 -19 -1 -33 3 -32 8 1 6 -11 11 -28 12 -52 3 -56 5 -49 18 6 9 4 9
-8 -1 -9 -7 -19 -9 -21 -5 -3 5 -35 8 -71 8 -36 0 -66 4 -66 8 0 4 -8 3 -18
-2 -11 -6 -24 -6 -35 0 -9 6 -17 6 -17 2 0 -9 -117 -9 -127 0 -3 4 -14 2 -24
-4 -13 -7 -19 -6 -19 1 0 7 -6 8 -18 1 -11 -6 -24 -6 -35 0 -9 6 -17 6 -17 2
0 -9 -117 -9 -127 0 -3 4 -14 2 -24 -3 -11 -6 -19 -6 -21 0 -2 5 -9 6 -16 2z
m422 -534 c-3 -4 -1 -8 5 -8 5 0 12 6 14 13 4 9 8 8 16 -3 10 -13 11 -13 11 0
0 13 1 13 10 0 6 -10 10 -11 10 -2 0 18 12 15 43 -12 27 -24 28 -25 28 -142 0
-77 4 -123 12 -133 9 -12 9 -13 0 -7 -10 5 -13 -12 -13 -74 0 -73 -2 -83 -25
-106 -21 -21 -33 -25 -77 -22 -40 2 -52 7 -54 21 -1 9 3 17 9 17 7 0 6 4 -2 9
-13 8 -13 12 0 27 10 13 10 16 1 10 -16 -10 -13 25 3 36 6 5 5 8 -2 8 -15 0
-14 49 1 69 8 11 8 13 -1 7 -7 -4 -13 -3 -13 3 0 5 5 13 10 16 6 4 7 12 3 18
-12 20 -12 37 0 37 7 0 6 4 -2 9 -13 8 -13 12 0 27 9 11 9 15 2 10 -8 -4 -13
-1 -13 9 0 10 5 14 13 9 9 -5 9 -4 0 6 -10 11 -10 17 0 29 9 12 9 13 0 7 -8
-4 -13 -2 -13 8 0 8 5 18 10 21 6 4 7 12 3 18 -14 21 -11 74 3 74 7 0 11 -4 8
-9z"/>
<path d="M1356 4853 c-4 -4 -16 -8 -27 -10 -24 -4 -49 -26 -49 -45 0 -10 -3
-9 -10 2 -7 11 -10 4 -10 -27 0 -24 -5 -43 -11 -43 -6 0 -7 -5 -2 -12 10 -17
13 -39 4 -34 -9 6 -7 -206 2 -221 5 -8 3 -13 -4 -13 -8 0 -9 -4 0 -13 8 -10 7
-17 -1 -25 -8 -8 -8 -15 2 -27 10 -12 10 -15 0 -15 -9 0 -9 -4 -3 -12 9 -11
10 -87 3 -95 -7 -8 -5 -50 2 -60 5 -6 5 -14 0 -17 -10 -6 -10 -46 1 -63 4 -6
3 -14 -3 -18 -6 -4 -7 -11 -3 -18 10 -16 12 -157 2 -157 -4 0 -6 9 -4 20 2 11
0 20 -6 20 -5 0 -7 -10 -5 -22 3 -13 5 -27 5 -31 1 -5 5 -6 9 -3 5 3 9 -1 9
-9 0 -8 -4 -15 -9 -15 -5 0 -6 -6 -1 -12 10 -17 13 -39 4 -34 -9 6 -7 -546 2
-561 6 -9 2 -13 -9 -13 -16 0 -17 -1 -1 -12 16 -13 18 -33 4 -55 -4 -6 -3 -15
3 -18 8 -5 8 -11 0 -20 -6 -7 -7 -16 -2 -19 7 -4 9 -61 2 -61 -7 0 -6 -36 1
-41 5 -3 6 -11 2 -17 -9 -15 -12 -58 -3 -52 3 2 8 -22 9 -53 4 -97 5 -102 13
-102 4 0 8 -13 8 -29 0 -17 5 -33 10 -36 6 -3 10 -19 10 -35 0 -16 5 -32 10
-35 6 -3 10 -13 10 -21 0 -19 55 -102 84 -127 12 -10 14 -15 6 -11 -13 7 -13
5 -1 -9 7 -9 20 -17 28 -17 8 0 12 -4 9 -9 -3 -4 15 -18 39 -31 24 -13 42 -26
40 -30 -2 -4 13 -13 35 -20 22 -7 37 -17 34 -21 -2 -4 5 -6 16 -4 11 2 27 -3
35 -11 11 -12 15 -12 15 -2 0 8 3 9 8 3 4 -5 18 -12 32 -13 14 -2 30 -7 35
-11 6 -4 43 -7 82 -7 40 1 73 -3 73 -7 0 -5 4 -6 8 -3 5 3 30 6 58 7 60 2 95
9 90 18 -2 3 15 6 39 5 25 0 43 4 42 10 -1 5 5 11 13 11 29 2 70 17 70 26 0 5
3 8 8 7 12 -4 93 48 85 55 -3 4 1 7 11 7 9 0 25 13 34 30 9 16 22 30 29 30 6
0 15 9 18 20 3 11 11 20 16 20 6 0 8 4 4 9 -3 5 0 15 7 23 7 7 18 24 24 38 36
78 42 95 36 108 -4 11 -2 13 9 7 11 -7 11 -5 -1 10 -9 11 -10 16 -2 11 8 -5
12 2 12 24 0 20 4 29 11 24 8 -5 8 -1 0 14 -7 14 -8 23 -1 27 15 9 14 1879 -2
1908 -15 28 -34 47 -47 47 -6 0 -11 4 -11 9 0 5 -23 9 -50 7 -28 -1 -56 1 -62
5 -7 4 -20 3 -30 -2 -12 -7 -18 -6 -18 1 0 7 -6 8 -17 1 -11 -6 -24 -6 -35 0
-10 5 -18 6 -18 2 0 -10 -102 -9 -118 1 -7 4 -12 3 -12 -3 0 -5 -9 -8 -21 -6
-23 5 -79 -43 -79 -67 0 -8 -6 -20 -12 -27 -10 -11 -10 -14 0 -18 6 -3 12 -9
12 -14 0 -6 -5 -7 -11 -3 -8 5 -8 1 0 -14 7 -14 8 -23 1 -27 -6 -4 -7 -12 -3
-18 11 -17 11 -57 1 -63 -4 -3 -8 -10 -8 -15 0 -6 5 -7 11 -3 8 5 8 1 0 -13
-7 -14 -7 -23 2 -32 9 -9 9 -14 -2 -20 -8 -6 -9 -11 -3 -15 11 -7 10 -44 -1
-63 -4 -6 -3 -14 1 -17 10 -6 10 -52 -1 -62 -11 -12 -8 -26 4 -18 8 5 8 1 0
-13 -7 -14 -7 -23 2 -32 9 -9 9 -14 -2 -20 -8 -6 -9 -11 -3 -15 11 -7 10 -51
-1 -62 -4 -4 -3 -12 0 -18 11 -16 11 -56 1 -62 -4 -3 -8 -10 -8 -15 0 -6 5 -7
11 -3 8 5 8 1 0 -13 -7 -14 -7 -23 2 -32 9 -9 9 -14 -2 -20 -8 -6 -9 -11 -3
-15 11 -7 10 -44 -1 -63 -4 -6 -3 -14 1 -17 10 -6 10 -52 -1 -62 -10 -10 -9
-26 1 -20 5 3 9 -1 9 -9 0 -8 -5 -15 -10 -15 -5 0 -5 -6 2 -13 8 -10 7 -17 -1
-25 -8 -8 -8 -15 2 -27 10 -12 10 -15 0 -15 -9 0 -10 -3 -1 -13 8 -10 7 -17
-1 -25 -8 -8 -8 -15 2 -27 10 -12 10 -15 0 -15 -9 0 -10 -3 -1 -13 8 -10 7
-17 -1 -25 -8 -8 -8 -15 2 -27 10 -12 10 -15 0 -15 -9 0 -10 -3 -1 -13 8 -10
7 -17 -1 -25 -8 -8 -8 -15 2 -27 10 -12 10 -15 0 -15 -9 0 -10 -3 -1 -13 8
-10 7 -17 -1 -25 -8 -8 -8 -15 2 -27 10 -12 10 -15 0 -15 -9 0 -10 -3 -1 -13
8 -10 7 -17 -1 -25 -8 -8 -8 -15 2 -27 10 -12 10 -15 0 -15 -9 0 -10 -3 -1
-13 8 -10 7 -17 -1 -25 -8 -8 -8 -15 2 -27 9 -11 9 -15 1 -15 -7 0 -9 -5 -4
-12 4 -7 9 -22 10 -33 2 -15 1 -17 -6 -6 -7 10 -9 7 -8 -12 1 -14 5 -23 9 -21
8 5 4 -23 -5 -32 -11 -12 -8 -26 4 -18 8 5 8 1 0 -13 -7 -14 -7 -23 2 -32 9
-9 9 -14 -2 -20 -8 -6 -9 -11 -3 -15 11 -7 10 -44 -1 -63 -3 -5 -3 -13 0 -17
11 -11 12 -37 1 -30 -5 3 -9 0 -7 -7 4 -32 -2 -60 -11 -54 -5 3 -10 1 -10 -6
0 -7 -10 -9 -25 -7 -14 3 -28 1 -32 -5 -4 -6 -1 -7 7 -2 9 6 11 4 6 -4 -6 -9
-13 -8 -29 6 -11 10 -17 12 -13 6 4 -7 4 -13 1 -13 -10 0 -35 28 -35 39 0 6
-4 11 -10 11 -5 0 -10 5 -10 11 0 5 6 7 13 3 10 -6 10 -4 0 7 -10 10 -13 210
-13 928 l0 916 -24 28 c-13 15 -29 27 -35 27 -7 0 -9 5 -5 12 4 6 3 8 -2 5 -6
-3 -16 -2 -23 3 -8 4 -27 4 -42 0 -16 -5 -31 -5 -34 0 -3 4 -21 4 -40 0 -21
-5 -35 -4 -35 1 0 6 -7 6 -18 0 -11 -6 -24 -6 -35 0 -9 6 -17 6 -17 2 0 -9
-112 -9 -127 0 -6 4 -13 3 -17 0z"/>
<path d="M2667 4853 c-4 -4 -17 -8 -29 -10 -24 -4 -58 -35 -58 -53 0 -6 -4 -8
-10 -5 -16 10 -14 -2304 2 -2323 11 -13 11 -14 -2 -7 -12 7 -13 6 -3 -7 7 -8
10 -18 6 -21 -3 -4 2 -9 11 -13 9 -3 16 -12 16 -18 0 -7 7 -13 15 -14 8 -1 22
-3 30 -4 8 -1 15 -5 15 -10 0 -4 5 -8 11 -8 5 0 7 6 3 13 -6 9 -4 9 7 0 16
-16 33 -17 23 -2 -5 8 -1 8 14 0 25 -13 35 -14 28 -3 -3 5 1 9 9 9 8 0 12 -4
9 -9 -8 -13 10 -10 25 5 11 9 13 9 7 0 -4 -7 -3 -13 3 -13 5 0 12 6 14 13 4 9
6 9 6 0 1 -7 6 -13 12 -13 5 0 7 6 3 13 -6 10 -4 10 7 0 15 -15 33 -17 25 -4
-7 10 13 9 31 -2 6 -4 14 -3 18 3 4 7 12 7 25 0 25 -13 33 -13 24 3 -6 9 -4 9
8 -1 11 -9 18 -10 23 -2 3 6 12 7 18 3 17 -11 71 -10 79 2 5 6 8 5 8 -2 0 -7
5 -13 11 -13 5 0 7 6 3 13 -6 10 -4 10 7 0 16 -16 33 -17 23 -2 -5 8 -1 8 13
0 14 -7 24 -7 33 2 10 9 11 9 6 0 -4 -7 -3 -13 3 -13 5 0 12 6 14 13 4 9 6 9
6 0 1 -7 6 -13 12 -13 5 0 7 6 3 13 -6 9 -4 9 7 -1 16 -15 33 -16 23 -1 -4 7
1 7 16 -1 14 -8 20 -8 16 -1 -5 7 3 9 25 4 21 -4 30 -3 26 4 -4 6 5 9 25 7 17
-2 38 2 46 9 13 10 14 9 8 -1 -6 -10 0 -9 23 2 17 9 31 14 31 10 0 -4 7 -1 15
6 8 7 15 9 15 5 0 -4 7 -2 15 5 8 7 15 9 15 4 0 -5 4 -3 9 4 4 7 17 14 29 15
11 0 20 6 19 12 -1 5 6 9 17 7 10 -2 15 1 12 6 -3 5 8 15 24 22 16 7 27 16 24
21 -3 5 1 9 9 9 8 0 25 15 38 34 13 19 28 32 33 29 5 -3 6 -1 3 4 -4 6 3 21
14 34 27 31 58 101 66 148 2 14 9 33 15 44 8 15 7 18 -4 11 -10 -6 -11 -5 -1
7 7 9 13 39 14 67 1 28 5 50 8 48 9 -6 7 267 -2 281 -4 6 -3 14 2 17 7 5 8 41
1 41 -4 0 -11 43 -11 72 -1 22 -5 31 -12 26 -7 -4 -5 2 3 12 9 11 10 16 3 11
-11 -6 -17 16 -12 50 0 4 -3 10 -8 13 -4 3 -14 24 -22 46 -14 42 -71 127 -107
160 l-22 19 22 11 c12 7 20 19 18 29 -2 10 1 15 6 12 5 -3 15 7 23 22 8 15 18
30 24 34 5 4 6 8 1 8 -4 0 -1 11 8 25 9 14 17 42 19 64 1 21 5 37 10 34 4 -2
7 14 7 36 0 22 5 43 10 46 8 5 8 11 0 20 -8 9 -8 15 0 20 12 7 9 42 -4 64 -6
10 -5 12 3 7 14 -9 11 30 -3 53 -6 10 -5 12 3 7 14 -9 11 30 -3 53 -7 10 -5
12 3 6 9 -5 11 1 8 23 -4 23 -2 29 9 25 8 -3 14 -18 14 -35 0 -21 4 -27 13
-22 7 5 6 0 -3 -11 -9 -11 -10 -16 -2 -11 8 5 12 -1 13 -21 1 -15 1 -31 0 -35
0 -5 4 -8 9 -8 6 0 10 -11 10 -24 0 -14 5 -28 11 -31 5 -4 8 -12 6 -18 -2 -7
0 -20 5 -30 5 -10 11 -27 14 -38 10 -45 13 -56 28 -101 9 -26 16 -50 15 -55
-1 -4 -1 -15 0 -23 1 -13 2 -13 11 0 6 9 10 10 10 3 0 -6 -5 -15 -10 -18 -6
-4 -2 -18 10 -36 15 -20 17 -29 8 -29 -10 0 -10 -2 1 -9 7 -5 11 -13 7 -19 -3
-6 -1 -12 6 -14 7 -3 13 -18 13 -35 0 -17 7 -38 14 -47 7 -9 11 -16 7 -16 -3
0 0 -16 9 -35 10 -25 11 -34 2 -28 -7 4 -7 0 2 -10 7 -9 10 -17 5 -17 -5 0 -3
-4 3 -8 7 -4 14 -23 16 -41 2 -18 10 -37 18 -42 12 -7 12 -9 -1 -9 -13 0 -13
-1 0 -10 8 -5 12 -10 8 -10 -4 0 -1 -15 6 -32 7 -18 11 -39 9 -45 -3 -7 0 -13
7 -13 6 0 8 -4 5 -10 -3 -5 -2 -10 3 -10 5 0 8 -11 7 -25 -2 -14 0 -25 5 -25
4 0 10 -11 12 -25 4 -18 1 -25 -10 -25 -13 0 -12 -3 4 -15 12 -9 14 -14 6 -15
-7 0 -10 -5 -7 -11 4 -6 8 -26 9 -45 1 -24 -3 -34 -13 -34 -11 0 -10 -4 5 -15
12 -9 14 -14 6 -15 -7 0 -10 -5 -7 -11 4 -6 8 -26 9 -45 1 -26 -2 -33 -13 -29
-10 4 -9 0 4 -15 11 -12 13 -20 6 -20 -7 0 -9 -5 -5 -11 3 -6 6 -115 6 -243
l0 -231 29 -28 c16 -15 37 -27 47 -27 10 0 23 -5 30 -12 9 -9 12 -9 12 0 0 7
5 12 11 12 5 0 7 -4 4 -10 -3 -5 1 -10 10 -10 10 0 13 5 9 13 -6 9 -4 9 8 -1
11 -9 18 -10 23 -2 4 7 12 7 25 0 25 -13 33 -13 24 3 -6 9 -4 9 8 -1 11 -9 18
-10 23 -2 3 6 11 8 16 4 5 -3 21 -7 35 -10 18 -3 23 -1 18 7 -5 8 -3 9 6 4 19
-12 54 -12 62 0 5 6 8 6 8 -2 0 -7 5 -13 11 -13 5 0 7 6 3 13 -6 10 -4 10 7 0
16 -16 33 -17 23 -1 -5 7 -1 9 13 6 22 -6 78 24 66 35 -3 4 0 7 8 7 12 0 16
13 16 53 1 28 2 54 3 57 5 13 5 37 -2 62 -3 15 -3 30 2 33 6 3 5 16 0 29 -5
13 -6 27 -3 30 9 9 9 86 0 86 -4 0 -4 7 1 17 6 9 6 29 2 45 -5 15 -5 30 0 33
6 3 5 16 0 29 -5 13 -6 27 -3 30 9 9 9 86 0 86 -4 0 -4 7 1 17 6 9 6 29 2 45
-5 15 -5 30 0 33 5 3 5 16 0 30 -6 15 -6 27 0 30 7 4 6 13 0 26 -8 14 -7 19 1
19 8 0 7 5 -2 17 -10 11 -10 14 -1 9 12 -7 15 0 15 37 0 9 4 17 9 17 5 0 7 4
3 9 -3 5 -1 12 4 15 5 3 8 19 7 35 -2 22 2 27 13 23 10 -4 13 -1 8 12 -4 9 -1
27 6 39 7 12 13 33 12 47 0 14 7 31 15 38 13 12 13 13 0 6 -13 -7 -13 -5 -1 9
7 9 11 23 8 31 -3 7 -1 18 4 23 5 5 12 20 14 33 2 13 8 26 12 29 5 3 8 15 8
26 -1 11 3 23 7 26 5 3 10 20 11 37 1 18 6 32 10 32 5 0 6 4 3 8 -3 5 1 21 9
36 8 14 9 24 4 20 -6 -4 -4 4 4 17 8 13 13 32 12 41 -2 9 3 19 9 21 7 3 12 16
11 29 -1 12 2 25 6 28 5 3 10 15 12 25 1 11 7 26 11 34 6 9 5 12 -1 8 -5 -3
-10 0 -10 8 0 8 4 12 9 9 7 -5 12 18 9 39 0 4 4 7 10 7 5 0 8 4 5 8 -3 5 2 21
10 36 7 16 14 44 14 62 0 19 4 34 8 34 4 0 9 12 10 27 1 15 7 30 13 34 6 3 10
9 10 13 -1 3 -1 21 -1 39 0 24 3 28 10 17 7 -11 10 -7 11 20 1 19 2 41 2 47
-1 7 3 11 7 8 14 -9 22 67 27 241 l4 170 -67 0 c-36 -1 -71 2 -77 6 -6 4 -19
2 -29 -3 -12 -7 -18 -6 -18 1 0 7 -6 8 -18 1 -11 -6 -24 -6 -35 0 -9 6 -17 6
-17 2 0 -10 -83 -9 -99 1 -6 4 -11 2 -11 -3 0 -6 -3 -10 -7 -10 -27 4 -63 -3
-58 -11 3 -5 -1 -10 -10 -10 -9 0 -13 -4 -10 -10 3 -5 -3 -15 -14 -22 -15 -9
-17 -15 -9 -25 7 -9 7 -13 -1 -13 -6 0 -11 -13 -11 -30 0 -16 -4 -30 -9 -30
-5 0 -9 -11 -10 -25 -3 -46 -4 -55 -11 -55 -3 0 -7 -14 -8 -31 -1 -18 -6 -37
-9 -43 -4 -6 -9 -20 -11 -31 -2 -11 -5 -25 -6 -32 -1 -7 -5 -16 -9 -19 -4 -4
-7 -20 -7 -35 0 -15 -4 -31 -10 -34 -5 -3 -10 -22 -10 -41 0 -19 -4 -34 -8
-34 -4 0 -9 -15 -10 -32 -2 -18 -7 -37 -12 -42 -6 -6 -10 -27 -10 -48 0 -21
-4 -38 -10 -38 -5 0 -10 -9 -10 -20 0 -11 -5 -20 -10 -20 -6 0 -10 6 -9 13 4
29 -2 68 -9 63 -4 -2 -8 3 -9 12 -2 42 -8 72 -13 72 -5 0 -10 28 -13 68 0 6
-4 12 -9 12 -4 0 -8 18 -8 41 0 24 -4 38 -10 34 -6 -4 -10 8 -10 29 0 22 -5
36 -12 36 -9 0 -8 4 2 10 10 6 11 10 3 10 -8 0 -13 13 -13 31 0 16 -4 28 -8
25 -4 -2 -8 3 -9 12 -2 42 -8 72 -13 72 -3 0 -7 12 -8 26 -1 15 -8 34 -15 42
-9 13 -9 14 1 8 6 -4 12 -2 12 3 0 6 -4 11 -10 11 -5 0 -10 12 -10 26 0 17 -4
23 -12 18 -8 -5 -9 -2 -5 9 4 11 1 17 -8 17 -8 0 -15 4 -15 9 0 11 -39 26 -59
22 -7 -1 -11 1 -8 6 3 4 -6 8 -19 8 -13 0 -24 -2 -24 -5 0 -7 -119 -4 -127 3
-3 4 -14 2 -24 -4 -13 -7 -19 -6 -19 1 0 7 -6 8 -17 1 -11 -6 -24 -6 -35 0
-10 5 -18 6 -18 2 0 -5 -27 -8 -60 -7 -33 0 -60 -4 -60 -9 0 -6 -3 -7 -6 -4
-4 4 -17 -5 -29 -19 -17 -20 -23 -39 -22 -75 0 -27 3 -49 6 -49 4 0 8 -13 9
-30 1 -16 -2 -30 -8 -30 -5 0 -10 7 -10 16 0 8 -4 13 -9 9 -5 -3 -12 4 -16 15
-3 11 -14 20 -22 20 -9 0 -14 3 -10 6 10 10 -52 56 -64 48 -7 -4 -9 -3 -6 3 7
10 -49 43 -72 43 -6 0 -11 4 -11 8 0 4 -8 9 -17 10 -25 2 -45 8 -65 16 -9 4
-22 5 -28 1 -5 -3 -10 -1 -10 4 0 6 -5 11 -11 11 -5 0 -7 -6 -3 -12 5 -9 2 -9
-9 1 -9 7 -17 10 -17 6 0 -4 -6 -3 -12 2 -7 5 -30 8 -50 8 -21 -1 -38 2 -38 7
0 5 -8 4 -18 -1 -11 -6 -24 -6 -35 0 -9 6 -17 6 -17 2 0 -9 -117 -9 -127 0 -3
4 -14 2 -24 -4 -13 -7 -19 -6 -19 1 0 7 -6 8 -17 1 -11 -6 -24 -6 -35 0 -10 5
-18 6 -18 2 0 -10 -94 -8 -110 2 -5 3 -10 2 -10 -2 0 -9 -46 -10 -55 -1 -3 3
-21 2 -40 -2 -18 -4 -37 -4 -42 1 -5 5 -13 6 -16 2z m1090 -242 c-1 -15 -4
-17 -14 -9 -15 12 -17 22 -3 13 6 -3 10 -1 10 4 0 6 2 11 4 11 3 0 4 -9 3 -19z
m78 -273 c-7 -32 -13 -32 -11 1 0 16 4 27 8 25 4 -2 5 -14 3 -26z m-670 -18
c-2 -4 2 -7 10 -7 8 0 12 4 9 9 -3 4 2 8 10 8 9 0 16 -6 16 -12 0 -9 4 -8 10
2 6 10 10 11 10 3 0 -7 6 -13 14 -13 20 0 26 -23 26 -101 0 -48 4 -69 13 -70
10 0 10 -2 0 -6 -7 -2 -13 -16 -13 -29 0 -13 6 -24 13 -24 9 0 9 -2 0 -8 -7
-5 -12 -28 -11 -57 0 -28 -4 -51 -11 -53 -6 -2 -11 -10 -11 -18 0 -9 -4 -12
-10 -9 -5 3 -10 1 -10 -5 0 -7 -21 -10 -58 -9 l-59 2 2 37 c1 20 5 42 9 48 4
7 2 12 -6 12 -10 0 -10 2 1 9 8 5 9 11 3 15 -11 7 -11 24 1 44 5 7 3 12 -5 12
-10 0 -10 2 1 9 7 5 9 11 4 14 -11 7 -10 107 1 125 4 7 2 12 -6 12 -10 0 -10
2 1 9 8 5 9 11 3 15 -8 4 -10 37 -3 42 7 4 49 -2 46 -6z m55 -933 c0 -5 5 -5
11 -1 17 10 59 -17 59 -38 0 -10 4 -18 9 -18 6 0 10 -85 11 -201 0 -136 -3
-199 -10 -194 -5 3 -10 -1 -10 -9 0 -9 -6 -16 -12 -16 -10 0 -10 -2 -1 -8 7
-4 -23 -8 -66 -7 -44 0 -83 4 -87 8 -12 12 -13 36 -3 43 5 3 6 11 2 17 -11 18
-12 38 -2 31 5 -3 9 -1 9 5 0 5 -5 13 -10 16 -7 4 -7 13 0 26 8 14 7 19 -2 20
-10 0 -10 2 1 6 11 5 11 7 0 14 -12 7 -11 9 1 9 13 0 13 1 0 10 -11 7 -11 10
-2 10 8 0 10 5 5 13 -11 18 -13 38 -2 31 5 -3 9 -1 9 5 0 5 -4 12 -8 15 -10 6
-9 97 2 114 4 7 2 12 -6 13 -10 0 -10 2 0 6 6 2 9 10 5 16 -11 18 -12 38 -2
31 5 -3 9 0 9 5 0 6 -6 11 -12 12 -10 0 -10 2 0 6 6 2 10 8 8 11 -2 4 18 7 45
7 27 0 49 -4 49 -8z"/>
<path d="M1236 4342 c-5 -9 -2 -39 5 -46 2 -3 5 9 5 25 2 30 -1 35 -10 21z"/>
<path d="M1237 3235 c-4 -8 -3 -16 1 -19 4 -3 9 4 9 15 2 23 -3 25 -10 4z"/>
<path d="M2104 2098 c-3 -4 -20 -8 -39 -8 -18 0 -35 -4 -37 -9 -1 -5 -14 -11
-28 -13 -13 -1 -32 -10 -42 -18 -33 -30 -47 -40 -54 -40 -11 0 -54 -54 -54
-68 0 -7 -4 -10 -10 -7 -5 3 -10 -1 -10 -9 0 -9 -4 -16 -10 -16 -5 0 -9 -3 -9
-7 5 -29 -24 -53 -37 -31 -4 7 -3 8 5 4 9 -6 12 10 10 63 -1 39 -6 71 -11 71
-4 0 -8 7 -8 16 0 20 -24 44 -44 44 -8 0 -17 4 -20 9 -9 14 -657 12 -675 -2
-12 -9 -13 -9 -8 0 6 9 1 9 -18 -1 -26 -14 -65 -53 -65 -67 0 -4 -3 -15 -7
-25 -5 -13 -3 -15 8 -9 11 7 12 6 2 -6 -14 -17 -13 -59 1 -59 5 0 2 -6 -9 -13
-14 -11 -15 -16 -5 -22 9 -6 11 -4 5 5 -5 9 -4 11 3 6 9 -5 7 -15 -6 -34 -12
-19 -13 -24 -3 -17 11 6 13 4 8 -8 -3 -9 -2 -19 3 -22 5 -3 7 -12 4 -20 -4 -8
-11 -12 -18 -8 -6 4 -3 -5 7 -20 9 -15 13 -27 8 -27 -6 0 -6 -12 -1 -30 5 -18
5 -30 -1 -30 -5 0 -9 10 -9 23 0 13 -4 27 -10 33 -5 5 -11 22 -12 37 -1 15 -6
27 -10 27 -4 0 -8 5 -8 11 0 5 5 7 11 4 9 -6 -8 32 -21 45 -3 3 -6 14 -8 25
-2 11 -11 26 -20 33 -9 6 -12 12 -7 12 4 0 -2 8 -13 19 -12 10 -19 21 -15 25
3 3 0 6 -7 6 -7 0 -20 8 -29 19 -22 25 -87 61 -110 61 -11 0 -21 4 -23 10 -2
5 -20 10 -41 12 -20 1 -37 5 -37 9 0 4 -112 7 -250 7 -138 0 -250 -4 -250 -9
0 -5 -6 -9 -13 -9 -7 0 -19 -9 -27 -19 -7 -11 -17 -18 -22 -15 -4 3 -8 -354
-8 -793 l0 -798 23 -26 c12 -15 36 -31 52 -36 33 -11 475 -9 515 1 14 4 30 8
35 9 6 2 16 7 24 11 9 6 12 5 7 -2 -4 -6 12 0 36 13 23 13 46 21 51 18 6 -3 7
-1 3 5 -4 7 -1 12 8 12 9 0 16 8 16 17 0 9 3 13 6 10 7 -7 74 61 74 75 0 5 10
22 21 37 12 16 18 34 15 39 -4 6 2 15 11 21 14 8 15 10 3 11 -11 0 -12 2 -3 8
7 4 14 28 16 52 2 25 7 53 11 62 4 9 5 21 2 26 -3 6 2 16 11 23 14 12 16 12 8
0 -12 -21 -13 -81 -1 -81 5 0 1 -7 -10 -16 -10 -8 -14 -13 -7 -10 16 8 27 -11
12 -20 -8 -5 -9 -3 -4 6 5 9 4 11 -4 6 -8 -5 -9 -12 -2 -19 5 -7 8 -28 7 -47
-1 -19 3 -41 9 -49 7 -11 7 -13 -3 -7 -9 6 -11 0 -7 -24 4 -24 2 -30 -7 -25
-7 4 -4 -1 6 -9 11 -9 15 -16 9 -16 -6 0 -13 -7 -16 -14 -4 -11 -1 -13 11 -9
13 5 14 3 5 -7 -13 -14 2 -59 24 -73 8 -5 10 -13 7 -19 -5 -7 -1 -9 9 -5 9 3
19 2 22 -4 4 -5 11 -7 16 -4 5 4 9 2 9 -2 0 -5 149 -9 330 -9 182 1 330 3 330
6 0 3 9 6 21 7 47 4 77 58 80 143 1 33 6 57 11 54 4 -3 8 -12 8 -20 0 -8 5
-14 10 -14 6 0 10 -7 10 -15 0 -16 90 -112 90 -98 0 5 5 0 11 -9 5 -10 17 -18
24 -18 8 0 15 -6 15 -12 0 -9 4 -8 10 2 6 10 10 11 10 3 0 -7 7 -13 15 -13 8
0 15 -3 15 -7 0 -5 16 -9 36 -9 20 -1 39 -6 43 -11 3 -5 51 -8 106 -7 119 2
118 2 111 13 -4 5 3 7 14 4 11 -3 28 1 37 8 12 10 15 10 9 1 -4 -6 13 -1 38
12 25 14 46 22 46 18 0 -3 7 3 15 14 8 10 15 15 15 11 0 -13 78 71 85 93 4 11
11 18 16 15 5 -4 9 5 9 19 0 13 4 26 10 28 5 2 10 17 12 34 1 21 6 30 15 27 9
-4 11 6 7 36 -3 23 -1 41 4 41 4 0 8 -25 9 -56 1 -47 -2 -54 -16 -50 -14 5
-14 5 -1 -6 18 -15 21 -69 5 -80 -7 -5 -7 -8 0 -8 6 0 11 -15 12 -32 1 -18 3
-41 5 -50 5 -21 42 -58 58 -58 6 0 9 -3 7 -7 -3 -5 62 -8 143 -8 148 0 148 0
184 29 20 15 36 33 36 40 0 6 -5 4 -10 -4 -5 -8 -10 -10 -10 -4 0 5 4 14 9 20
6 5 11 92 13 192 2 101 5 185 8 187 3 2 6 -18 7 -43 1 -79 7 -122 15 -122 4 0
8 -13 8 -29 0 -16 4 -31 10 -33 5 -1 11 -15 12 -30 1 -15 6 -24 10 -22 4 3 8
-2 8 -10 0 -9 5 -16 10 -16 6 0 10 -6 10 -14 0 -8 7 -17 16 -20 8 -3 12 -11 8
-17 -4 -8 -3 -9 4 -5 7 4 12 2 12 -4 0 -6 5 -8 10 -5 6 3 10 -4 11 -17 0 -13
3 -17 6 -10 4 10 9 8 21 -5 10 -10 24 -19 32 -21 8 -2 18 -8 21 -14 4 -6 18
-10 33 -10 14 0 23 -4 20 -9 -4 -8 42 -14 69 -10 4 0 7 -2 7 -7 0 -4 42 -7 93
-6 114 2 110 1 101 17 -6 9 -5 9 7 0 9 -7 20 -8 29 -3 8 5 18 6 24 3 5 -3 15
2 23 12 9 14 13 15 13 4 0 -12 2 -12 10 1 5 8 10 11 10 5 0 -5 4 -5 8 2 4 6
14 13 22 15 8 2 25 13 38 26 13 12 28 20 33 16 5 -3 9 -2 8 3 -1 4 -1 15 0 23
1 13 2 13 11 0 9 -13 10 -13 10 1 0 8 8 24 18 35 24 28 42 61 42 79 0 8 5 15
10 15 6 0 10 14 10 31 0 21 4 28 13 23 7 -5 6 0 -3 11 -12 15 -12 17 -1 10 11
-6 13 -2 9 19 -3 14 -1 29 4 32 4 3 5 10 2 16 -4 6 -3 8 3 5 6 -4 10 -65 10
-154 0 -103 3 -148 11 -151 7 -2 10 -7 7 -12 -3 -5 9 -23 26 -42 17 -18 29
-27 25 -20 -4 6 -2 12 3 12 6 0 11 -3 11 -8 0 -4 56 -7 125 -7 69 -1 125 2
125 6 0 4 10 9 22 11 12 2 28 13 34 25 6 13 13 20 17 17 3 -3 6 70 7 163 3
207 2 193 12 193 7 0 11 -19 11 -62 0 -10 4 -15 8 -12 5 3 9 -11 9 -30 0 -20
5 -36 10 -36 6 0 10 -18 10 -40 0 -22 5 -40 10 -40 6 0 10 -15 10 -33 0 -19 3
-37 7 -41 4 -3 8 -12 9 -19 5 -31 11 -43 31 -64 12 -13 29 -23 38 -23 8 0 15
-4 15 -8 0 -4 65 -7 144 -7 79 0 143 2 141 5 -2 3 10 12 26 19 17 7 28 15 25
18 -3 3 2 12 10 20 8 9 13 22 10 29 -3 8 -1 14 5 14 6 0 7 6 3 12 -11 17 -12
48 -2 42 10 -7 10 -1 -2 30 -6 16 -6 27 0 31 6 4 10 14 10 23 0 15 -2 15 -10
2 -6 -9 -10 -10 -10 -3 0 6 5 15 10 18 6 4 7 12 3 18 -10 17 -11 47 -1 41 10
-6 11 10 1 20 -10 10 -11 46 -1 40 11 -7 10 3 -3 28 -8 15 -8 19 0 14 12 -8
15 6 4 18 -10 10 -11 46 -1 40 10 -7 10 -1 -2 30 -6 16 -6 27 0 31 6 4 10 14
10 23 0 15 -2 15 -10 2 -6 -9 -10 -10 -10 -3 0 6 5 15 10 18 6 4 7 12 3 18
-10 17 -11 47 -1 41 10 -6 11 10 1 20 -10 10 -11 46 -1 40 11 -7 10 3 -3 28
-8 15 -8 19 0 14 12 -8 15 6 4 18 -10 10 -11 46 -1 40 10 -7 10 -1 -2 30 -6
16 -6 27 0 31 6 4 10 14 10 23 0 15 -2 15 -10 2 -6 -9 -10 -10 -10 -3 0 6 5
15 10 18 6 4 7 12 3 18 -10 17 -11 47 -1 41 10 -6 11 10 1 20 -10 10 -11 46
-1 40 11 -7 10 3 -3 28 -8 15 -8 19 0 14 12 -8 15 6 4 18 -10 10 -11 46 -1 40
10 -7 10 -1 -2 30 -6 16 -6 27 0 31 6 4 10 14 10 23 0 15 -2 15 -10 2 -6 -9
-10 -10 -10 -3 0 6 5 15 10 18 6 4 7 12 3 18 -10 17 -11 47 -1 41 10 -6 11 10
1 20 -10 10 -11 46 -1 40 11 -7 10 3 -3 28 -8 15 -8 19 0 14 12 -8 15 6 4 18
-10 10 -11 46 -1 40 10 -7 10 -1 -2 30 -6 16 -6 27 0 31 6 4 10 14 10 23 0 15
-2 15 -10 2 -5 -8 -10 -10 -10 -4 0 6 3 14 7 17 3 4 8 18 9 32 2 17 -1 23 -9
18 -7 -4 -6 0 2 10 9 11 10 17 2 17 -6 0 -10 3 -10 8 5 28 -29 72 -55 72 -10
0 -15 4 -12 9 3 4 -45 8 -107 9 -73 0 -115 -4 -119 -12 -6 -8 -8 -7 -8 2 0 10
-5 10 -22 1 -34 -18 -68 -56 -68 -77 0 -10 -6 -24 -12 -31 -10 -11 -10 -13 0
-7 16 9 16 -6 0 -23 -7 -8 -8 -11 -2 -8 8 4 11 -11 10 -48 -1 -62 -12 -75 -14
-18 -1 20 -5 39 -9 42 -5 3 -10 22 -12 41 -2 19 -6 37 -10 40 -5 3 -11 17 -15
33 -3 15 -11 27 -18 27 -6 0 -19 10 -29 22 -13 14 -19 16 -19 7 0 -10 -3 -10
-8 -3 -8 13 -342 16 -342 3 0 -4 -10 -9 -22 -11 -15 -2 -24 -11 -26 -26 -2
-12 -7 -20 -11 -17 -9 5 -11 -14 -14 -197 -1 -75 -4 -138 -7 -140 -3 -2 -4 -1
-3 1 1 2 -2 12 -8 22 -5 11 -6 19 -1 19 5 0 7 11 4 25 -2 14 -8 23 -11 20 -4
-2 -8 2 -8 10 0 8 5 12 11 9 6 -3 4 0 -4 8 -9 7 -14 21 -12 31 2 9 -1 17 -6
17 -5 0 -12 13 -15 29 -3 16 -12 35 -19 43 -7 7 -18 23 -25 33 -6 11 -16 19
-22 17 -6 -1 -11 2 -11 8 0 14 -42 50 -52 44 -4 -3 -8 1 -8 8 0 7 -9 19 -21
26 -17 11 -20 11 -13 0 4 -7 -2 -5 -13 5 -16 14 -22 15 -26 5 -4 -9 -6 -8 -6
3 -1 10 -11 17 -26 18 -47 3 -55 4 -55 11 0 3 -52 6 -115 6 -63 0 -109 -3
-103 -8 8 -5 2 -8 -17 -9 -33 -1 -40 -3 -72 -14 -13 -4 -23 -12 -23 -18 0 -6
-3 -7 -6 -4 -4 3 -18 -2 -32 -13 -13 -11 -29 -17 -35 -13 -5 3 -7 1 -4 -4 4
-6 0 -13 -8 -17 -8 -3 -15 -13 -15 -23 0 -15 -2 -16 -10 -3 -8 13 -10 12 -10
-2 0 -10 -4 -18 -10 -18 -5 0 -10 -7 -10 -15 0 -8 -4 -15 -10 -15 -5 0 -10 -7
-10 -16 0 -8 -4 -12 -10 -9 -6 4 -10 -7 -10 -24 0 -17 -4 -31 -10 -31 -5 0
-10 -12 -10 -26 0 -16 -4 -23 -11 -18 -7 4 -7 -1 1 -16 8 -15 8 -20 1 -16 -10
7 -17 -34 -12 -71 1 -7 -2 -13 -8 -13 -5 0 -10 65 -11 158 -2 194 -2 182 -12
176 -4 -3 -8 5 -8 17 0 12 -3 20 -6 16 -4 -3 -13 1 -21 9 -8 8 -19 12 -24 9
-5 -4 -9 -2 -9 4 0 6 -52 10 -144 9 -80 -1 -143 -5 -140 -10 3 -4 -5 -8 -17
-8 -12 0 -19 -3 -16 -6 4 -4 -3 -16 -16 -26 -20 -18 -22 -28 -20 -106 2 -66
-1 -90 -13 -103 -12 -13 -12 -19 -3 -25 7 -4 10 -3 5 4 -3 6 -2 13 4 17 6 4 9
-10 7 -35 -2 -42 -17 -57 -17 -17 0 13 -3 27 -7 31 -7 7 -11 23 -15 63 -1 12
-4 20 -7 18 -6 -7 -30 28 -31 43 0 8 -13 26 -30 42 -16 15 -26 30 -23 34 3 3
-1 6 -10 6 -9 0 -17 5 -17 10 0 6 -7 10 -15 10 -8 0 -15 3 -15 8 0 9 -49 32
-71 32 -10 0 -19 5 -21 10 -2 6 -22 12 -45 13 -23 0 -40 4 -37 8 2 4 -39 7
-91 6 -53 0 -98 -4 -101 -9z m-334 -398 c0 -5 -4 -10 -9 -10 -6 0 -13 5 -16
10 -3 6 1 10 9 10 9 0 16 -4 16 -10z m-76 -22 c-6 -10 -4 -10 7 0 20 18 47 15
60 -9 8 -15 8 -19 0 -15 -6 4 -11 1 -11 -8 0 -8 5 -18 11 -22 8 -4 8 -9 0 -17
-7 -7 -7 -14 0 -24 9 -10 8 -17 -2 -30 -8 -9 -9 -14 -3 -10 11 6 14 -9 16 -70
0 -13 4 -20 9 -17 5 3 9 -6 9 -20 0 -14 5 -28 10 -31 6 -3 10 -15 10 -26 0
-10 5 -19 11 -19 5 0 8 -4 4 -9 -3 -5 0 -15 7 -23 7 -7 19 -25 27 -40 8 -16
18 -28 23 -28 4 0 8 -7 8 -16 0 -8 5 -12 10 -9 6 3 10 -1 10 -10 0 -19 25 -47
34 -38 3 4 6 1 6 -6 0 -6 11 -23 25 -37 14 -14 25 -22 25 -18 0 4 13 -10 29
-30 16 -20 33 -38 38 -39 4 -1 7 -6 5 -10 -1 -5 1 -6 6 -3 4 2 14 1 22 -5 17
-10 20 -9 -55 -13 -22 -1 -50 2 -62 6 -12 4 -25 3 -28 -2 -3 -6 -15 -6 -29 0
-13 5 -27 6 -30 2 -4 -3 -21 -7 -39 -8 -73 -3 -73 -3 -57 -15 12 -9 11 -10 -7
-6 -18 4 -23 1 -23 -14 0 -10 -4 -19 -9 -19 -11 0 -11 -2 -11 -117 0 -49 -4
-83 -10 -83 -5 0 -10 4 -10 8 0 4 -19 9 -42 11 -23 1 -49 7 -57 14 -12 9 -13
9 -7 0 6 -10 -21 -13 -118 -13 l-126 0 -1 30 c-2 39 -3 42 -13 59 -6 9 -5 12
1 8 7 -4 10 13 9 48 0 30 -5 55 -11 55 -5 0 -4 4 3 9 8 4 13 11 13 15 -3 23 0
26 19 16 11 -6 20 -7 19 -3 -4 22 3 25 17 7 8 -10 13 -14 10 -7 -7 13 31 12
52 -1 8 -4 12 -1 12 11 0 15 2 16 10 3 5 -8 12 -11 16 -7 4 4 13 2 21 -4 10
-9 13 -8 13 0 0 7 4 10 9 6 5 -3 12 -1 15 3 3 5 17 8 31 7 17 -2 25 2 25 11 0
9 3 13 8 11 9 -6 33 19 25 27 -4 3 -1 6 5 6 6 0 9 11 6 26 -3 17 -1 23 7 19 8
-6 8 -2 0 13 -14 27 -14 35 2 26 9 -5 9 -4 0 6 -8 9 -9 19 -3 31 7 11 7 20 0
24 -5 3 -10 11 -10 16 0 6 4 7 10 4 7 -4 7 2 0 19 -6 17 -6 27 1 32 6 4 6 11
-2 20 -6 8 -9 17 -6 21 4 3 2 12 -4 20 -6 7 -8 13 -5 13 4 0 -4 11 -18 25 -18
18 -36 25 -63 25 -28 0 -34 3 -23 10 8 5 11 10 7 10 -4 0 -18 -7 -30 -15 -16
-10 -26 -11 -37 -4 -13 9 -12 10 2 5 10 -3 19 -2 22 2 3 4 -4 8 -14 9 -11 1
-22 -2 -25 -8 -4 -5 -11 -9 -16 -9 -6 0 -8 4 -5 8 7 12 -26 12 -41 0 -7 -6
-14 -5 -18 2 -5 8 -10 8 -20 0 -18 -15 -30 6 -26 43 1 15 -3 35 -11 44 -10 13
-10 15 0 9 9 -6 12 -1 10 16 -2 12 -7 29 -12 37 -7 10 -5 12 3 6 10 -5 11 2 7
29 -5 30 -3 36 12 37 9 0 79 1 154 2 75 1 140 5 144 10 11 11 16 8 8 -5z m531
2 c-3 -5 -1 -10 6 -10 10 0 10 -3 1 -12 -9 -9 -9 -15 1 -27 10 -12 9 -13 -1
-7 -10 6 -11 1 -6 -21 4 -15 10 -32 15 -37 4 -5 5 -15 2 -24 -4 -10 -2 -13 6
-8 6 4 11 4 10 -1 -1 -4 -1 -16 0 -27 1 -15 4 -16 16 -6 8 7 15 8 15 2 0 -5
15 -13 33 -17 48 -11 233 -8 275 4 1 1 4 1 7 1 12 0 45 41 40 50 -3 5 -2 11 3
14 11 6 10 -245 -1 -261 -4 -6 -3 -14 2 -17 11 -7 9 -25 -3 -45 -6 -10 -5 -12
2 -7 9 5 12 -10 12 -54 0 -44 -3 -59 -12 -54 -7 5 -8 3 -3 -7 8 -12 15 -89 9
-89 -14 0 -34 15 -34 26 0 7 -9 29 -20 49 -11 20 -20 42 -20 50 0 8 -4 15 -10
15 -5 0 -10 7 -10 16 0 8 -4 12 -10 9 -5 -3 -10 1 -10 10 0 10 -5 13 -12 9 -6
-4 -8 -3 -5 3 4 6 -11 30 -33 54 -21 24 -36 47 -34 51 3 5 2 7 -3 6 -4 -2 -19
5 -33 15 -13 9 -20 17 -15 17 5 0 -5 10 -22 23 -17 12 -44 37 -59 55 -16 18
-35 32 -44 33 -10 0 -9 3 5 9 19 8 19 9 -3 9 -12 1 -26 9 -29 19 -4 9 -13 23
-20 30 -6 7 -9 20 -6 29 4 10 2 14 -5 9 -12 -7 -27 29 -17 44 3 5 2 10 -4 10
-11 0 -9 19 3 39 7 11 5 13 -9 7 -15 -5 -16 -4 -5 9 14 16 45 21 35 5z m1360
-106 c0 -74 5 -117 13 -127 15 -17 8 -24 -38 -37 -27 -8 -28 -7 -21 13 5 12 5
32 0 45 -5 14 -5 22 2 22 6 0 6 6 0 19 -6 10 -7 21 -3 25 8 9 9 76 0 76 -4 0
-3 14 2 30 5 19 5 30 -1 30 -6 0 -7 5 -4 11 4 5 16 9 28 7 20 -3 21 -9 22
-114z m-3102 92 c3 3 5 -88 5 -203 0 -145 -4 -210 -12 -215 -8 -6 -8 -8 1 -8
8 0 11 -62 12 -224 l1 -225 -28 1 -28 1 -1 436 c0 433 2 466 33 441 6 -6 13
-7 17 -4z m2623 -57 c0 -33 -2 -61 -5 -63 -3 -2 -6 27 -6 64 0 38 2 67 5 64 2
-3 5 -32 6 -65z m911 29 c4 -28 -6 -18 -12 12 -2 12 -1 20 2 16 4 -4 8 -16 10
-28z m-3072 -28 c1 -11 -2 -20 -7 -20 -4 0 -7 11 -6 25 3 28 11 24 13 -5z m-8
-37 c-4 -3 -2 -11 3 -18 6 -8 5 -18 -6 -31 -14 -18 -15 -18 -5 3 8 15 8 24 1
28 -10 6 -5 25 7 25 4 0 3 -3 0 -7z m2169 -72 c-2 -42 -11 -46 -12 -5 0 19 3
34 7 34 3 0 6 -13 5 -29z m-2160 -11 c0 -11 -4 -20 -8 -20 -10 0 -11 24 -1 33
9 9 9 10 9 -13z m3070 -86 c1 -35 -3 -64 -7 -64 -5 0 -9 4 -9 9 0 5 -7 17 -16
25 -16 17 -10 61 7 51 8 -6 14 26 9 50 -1 6 2 6 7 2 4 -5 8 -38 9 -73z m-3079
49 c-4 -3 -2 -11 3 -18 6 -8 5 -18 -6 -31 -14 -18 -15 -18 -5 3 8 15 8 24 1
28 -10 6 -5 25 7 25 4 0 3 -3 0 -7z m2169 -63 c0 -33 -2 -60 -5 -60 -3 0 -6
27 -7 60 0 33 2 60 5 60 3 0 6 -27 7 -60z m-2160 -20 c0 -11 -4 -20 -8 -20
-10 0 -11 24 -1 33 9 9 9 10 9 -13z m-9 -37 c-4 -3 -2 -11 3 -18 6 -8 5 -18
-6 -31 -14 -18 -15 -18 -5 3 8 15 8 24 1 28 -10 6 -5 25 7 25 4 0 3 -3 0 -7z
m2169 -38 c1 -14 -2 -25 -6 -25 -6 0 -7 36 -1 48 4 7 6 -1 7 -23z m-2160 -45
c0 -11 -4 -20 -8 -20 -10 0 -11 24 -1 33 9 9 9 10 9 -13z m2160 -15 c1 -14 -2
-25 -6 -25 -6 0 -7 36 -1 48 4 7 6 -1 7 -23z m-2169 -22 c-4 -3 -2 -11 3 -18
6 -8 5 -18 -6 -31 -14 -18 -15 -18 -5 3 8 15 8 24 1 28 -10 6 -5 25 7 25 4 0
3 -3 0 -7z m2169 -84 c0 -33 -2 -61 -5 -63 -3 -2 -6 27 -6 64 0 38 2 67 5 64
2 -3 5 -32 6 -65z m-2160 1 c0 -11 -4 -20 -8 -20 -10 0 -11 24 -1 33 9 9 9 10
9 -13z m-9 -37 c-4 -3 -2 -11 3 -18 6 -8 5 -18 -6 -31 -14 -18 -15 -18 -5 3 8
15 8 24 1 28 -10 6 -5 25 7 25 4 0 3 -3 0 -7z m2169 -72 c-2 -42 -11 -46 -12
-5 0 19 3 34 7 34 3 0 6 -13 5 -29z m-2160 -11 c0 -11 -4 -20 -8 -20 -10 0
-11 24 -1 33 9 9 9 10 9 -13z m1709 -40 c-2 -49 -10 -60 -13 -17 -1 18 -5 40
-8 49 -4 12 -1 16 8 13 9 -4 14 -20 13 -45z m924 32 c4 -6 7 -60 6 -118 0 -93
-3 -107 -18 -110 -9 -1 -17 2 -17 7 0 6 -6 7 -12 3 -9 -5 -9 -2 1 9 9 12 10
17 2 17 -9 0 -9 5 -1 20 8 14 8 20 0 20 -8 0 -8 6 0 20 6 12 7 20 1 20 -6 0
-6 11 -1 30 6 20 5 30 -2 30 -6 0 -6 6 2 15 10 12 10 15 0 15 -10 0 -10 3 -1
14 9 11 9 15 -1 19 -7 3 -3 5 10 3 13 -1 27 -8 31 -14z m-2642 -29 c-4 -3 -2
-11 3 -18 6 -8 5 -18 -6 -31 -14 -18 -15 -18 -5 3 8 15 8 24 1 28 -10 6 -5 25
7 25 4 0 3 -3 0 -7z m2169 -63 c0 -33 -2 -60 -5 -60 -3 0 -6 27 -7 60 0 33 2
60 5 60 3 0 6 -27 7 -60z m-923 13 c-5 -12 -3 -14 7 -8 9 5 11 4 6 -3 -4 -7
-4 -12 1 -12 14 0 30 -46 23 -66 -4 -10 -3 -22 3 -25 15 -10 -5 -34 -29 -35
-22 -1 -25 10 -11 33 4 6 2 15 -4 19 -8 5 -9 3 -4 -6 5 -9 4 -11 -4 -6 -9 6
-9 11 0 22 6 8 8 14 4 14 -4 0 -1 8 6 17 8 9 9 14 3 10 -7 -4 -11 8 -12 34 -1
23 2 38 8 34 5 -3 6 -13 3 -22z m-1237 -33 c0 -11 -4 -20 -8 -20 -10 0 -11 24
-1 33 9 9 9 10 9 -13z m3069 -95 c0 -14 -3 -25 -7 -25 -10 0 -10 34 -1 43 3 4
7 7 7 7 1 0 1 -11 1 -25z"/>
</g>
</svg>
